<svg width="24" height="24" xmlns="http://www.w3.org/2000/svg"><g fill="none" fill-rule="evenodd"><path fill="#FFF" d="M-1125-764H315v3218h-1440z"/><path d="M-821-80H267a8 8 0 018 8V96a8 8 0 01-8 8H-821a8 8 0 01-8-8V-72a8 8 0 018-8z" fill="#FAFBFB"/><path d="M12.001 22.248c5.66 0 10.25-4.588 10.25-10.25C22.25 6.339 17.66 1.75 12 1.75S1.751 6.34 1.751 12s4.59 10.25 10.25 10.25zm-3.27-6.98l6.457-6.456m-6.376 0l6.457 6.457" stroke="#767980" stroke-linecap="round" stroke-linejoin="round" stroke-width="1.5"/></g></svg>