<svg width="16" height="16" xmlns="http://www.w3.org/2000/svg"><g fill="#189CCE" fill-rule="evenodd"><path d="M1.5 4v10a.5.5 0 0 0 .5.5h12a.5.5 0 0 0 .5-.5V4a.5.5 0 0 0-.5-.5H2a.5.5 0 0 0-.5.5zM0 4a2 2 0 0 1 2-2h12a2 2 0 0 1 2 2v10a2 2 0 0 1-2 2H2a2 2 0 0 1-2-2V4z" fill-rule="nonzero"/><path d="M8.998 10.93c.963-.866 1.502-1.71 1.502-2.348 0-1.162-.896-1.359-1.073-.811-.448 1.384-2.406 1.384-2.854 0-.177-.548-1.073-.351-1.073.811 0 .638.54 1.482 1.503 2.347.316.284.655.55.998.793.342-.242.68-.508.997-.792zM8 7.31C9 5 12 6 12 8.581c0 2.667-4 4.927-4 4.927s-4-2.26-4-4.927C4 6 7 5 8 7.309z" fill-rule="nonzero"/><rect x="7.25" width="1.5" height="5" rx=".75"/><rect x="4" width="1.5" height="5" rx=".75"/><rect x="10.5" width="1.5" height="5" rx=".75"/></g></svg>