<svg width="24" height="24" xmlns="http://www.w3.org/2000/svg"><g fill="#189CCE" fill-rule="evenodd"><path d="M1.5 5v17a.5.5 0 0 0 .5.5h20a.5.5 0 0 0 .5-.5V5a.5.5 0 0 0-.5-.5H2a.5.5 0 0 0-.5.5zM0 5a2 2 0 0 1 2-2h20a2 2 0 0 1 2 2v17a2 2 0 0 1-2 2H2a2 2 0 0 1-2-2V5z" fill-rule="nonzero"/><rect x="6" width="1.5" height="7" rx=".75"/><rect x="11.25" width="1.5" height="7" rx=".75"/><rect x="16.5" width="1.5" height="7" rx=".75"/><path d="M12.098 18.555c.65-.439 1.3-.936 1.9-1.476C15.586 15.652 16.5 14.222 16.5 13c0-2.563-2.532-3.118-3.073-1.447-.448 1.384-2.406 1.384-2.854 0C10.033 9.883 7.5 10.437 7.5 13c0 1.222.914 2.652 2.503 4.08A17.675 17.675 0 0 0 12 18.62c.032-.02.064-.042.097-.065zM12 11.091C13 8 18 8.538 18 13c0 4-5.999 7.39-5.999 7.39S6 17 6 13c0-4.543 5-5 6-1.91z" fill-rule="nonzero"/></g></svg>