<svg width="32" height="32" xmlns="http://www.w3.org/2000/svg"><g fill="#189CCE" fill-rule="evenodd"><path d="M1.5 5v25a.5.5 0 00.5.5h28a.5.5 0 00.5-.5V5a.5.5 0 00-.5-.5H2a.5.5 0 00-.5.5zM0 5a2 2 0 012-2h28a2 2 0 012 2v25a2 2 0 01-2 2H2a2 2 0 01-2-2V5z" fill-rule="nonzero"/><path d="M16.33 24.294a29.907 29.907 0 002.617-2.287c1.903-1.88 3.157-3.712 3.475-5.27.052-.257.078-.502.078-.737 0-3.777-4.364-4.36-5.045-1.636-.379 1.515-2.531 1.515-2.91 0C13.865 11.64 9.5 12.223 9.5 16c0 .235.026.48.078.736.318 1.559 1.573 3.392 3.476 5.271a29.914 29.914 0 002.947 2.54c.106-.081.216-.165.328-.253zM16 14c2-5 8-3 8 2s-7.999 10.399-7.999 10.399S8 21 8 16c0-5 6-7 8-2z" fill-rule="nonzero"/><rect x="10.25" width="1.5" height="8" rx=".75"/><rect x="20.25" width="1.5" height="8" rx=".75"/><rect x="15.25" width="1.5" height="8" rx=".75"/><rect x="25.25" width="1.5" height="8" rx=".75"/><rect x="5.25" width="1.5" height="8" rx=".75"/></g></svg>