<svg width="16" height="16" xmlns="http://www.w3.org/2000/svg"><path d="M8 0C3.581 0 0 3.52 0 7.86c0 3.474 2.292 6.42 5.471 7.46.4.072.546-.17.546-.38 0-.186-.007-.68-.01-1.336-2.226.475-2.695-1.054-2.695-1.054-.364-.908-.889-1.15-.889-1.15-.726-.487.055-.478.055-.478.803.056 1.225.81 1.225.81.714 1.202 1.873.855 2.329.653.073-.507.28-.854.508-1.05-1.777-.198-3.644-.873-3.644-3.885 0-.858.311-1.56.823-2.11-.082-.198-.357-.998.079-2.08 0 0 .671-.211 2.2.806A7.79 7.79 0 018 3.801c.68.004 1.364.09 2.003.265 1.527-1.017 2.198-.806 2.198-.806.436 1.082.162 1.882.08 2.08.513.55.822 1.252.822 2.11 0 3.02-1.87 3.684-3.652 3.879.286.242.542.722.542 1.455 0 1.051-.01 1.899-.01 2.157 0 .21.145.455.55.378C13.71 14.277 16 11.333 16 7.86 16 3.519 12.418 0 8 0" fill="#FFF" fill-rule="evenodd"/></svg>