<svg width="24" height="23" xmlns="http://www.w3.org/2000/svg"><path d="M11.999 0C5.373 0 0 5.279 0 11.791c0 5.21 3.438 9.629 8.207 11.188.6.109.819-.255.819-.568 0-.28-.01-1.021-.017-2.005-3.337.712-4.042-1.581-4.042-1.581-.546-1.362-1.332-1.725-1.332-1.725-1.09-.731.082-.717.082-.717 1.205.084 1.838 1.216 1.838 1.216 1.07 1.801 2.81 1.281 3.493.98.109-.762.419-1.282.762-1.577-2.665-.297-5.467-1.31-5.467-5.827 0-1.287.468-2.34 1.236-3.164-.124-.298-.536-1.498.118-3.12 0 0 1.007-.318 3.3 1.208A11.685 11.685 0 0 1 12 5.702c1.02.005 2.046.135 3.005.397C17.295 4.573 18.3 4.89 18.3 4.89c.655 1.623.243 2.823.12 3.12.77.824 1.233 1.878 1.233 3.165 0 4.53-2.806 5.526-5.478 5.818.43.364.814 1.084.814 2.183 0 1.577-.015 2.848-.015 3.235 0 .315.217.682.825.567C20.565 21.416 24 17 24 11.791 24 5.28 18.627 0 11.999 0" fill="#FFFFFE" fill-rule="evenodd"/></svg>