<svg width="32" height="31" xmlns="http://www.w3.org/2000/svg"><path d="M15.999 0C7.164 0 0 7.039 0 15.722c0 6.946 4.584 12.838 10.942 14.917.8.145 1.092-.34 1.092-.758 0-.373-.013-1.362-.021-2.673-4.45.95-5.39-2.108-5.39-2.108-.728-1.816-1.777-2.3-1.777-2.3-1.452-.975.11-.955.11-.955 1.606.11 2.451 1.62 2.451 1.62 1.427 2.402 3.745 1.708 4.657 1.306.145-1.015.559-1.708 1.015-2.101-3.552-.397-7.288-1.746-7.288-7.77 0-1.716.624-3.12 1.647-4.219-.165-.398-.714-1.997.158-4.16 0 0 1.342-.423 4.399 1.611A15.58 15.58 0 0116 7.602c1.36.007 2.728.18 4.006.53 3.055-2.034 4.395-1.612 4.395-1.612.874 2.164.325 3.763.16 4.161 1.026 1.098 1.645 2.503 1.645 4.219 0 6.04-3.741 7.368-7.305 7.757.574.486 1.085 1.445 1.085 2.911 0 2.102-.02 3.798-.02 4.313 0 .421.29.91 1.1.757C27.42 28.554 32 22.666 32 15.722 32 7.039 24.836 0 15.999 0" fill="#FFF" fill-rule="evenodd"/></svg>