<svg width="16" height="16" xmlns="http://www.w3.org/2000/svg"><g fill="#FFF" fill-rule="evenodd"><path d="M4 13.75v-1.5c.381 0 2.295-2.517 3.33-4.585C8.853 4.615 11.426 2.25 15 2.25v1.5c-2.867 0-5.031 1.99-6.33 4.585C7.326 11.027 5.255 13.75 4 13.75z" fill-rule="nonzero"/><path d="M2.75 14.5a1.25 1.25 0 100-2.5 1.25 1.25 0 000 2.5zm0 1.5a2.75 2.75 0 110-5.5 2.75 2.75 0 010 5.5z" fill-rule="nonzero"/><path d="M.246.217A.73.73 0 011.283.22L5.17 4.153a.74.74 0 01-.004 1.043.73.73 0 01-1.036-.003L.243 1.259A.74.74 0 01.246.217z"/><path d="M5.166.217A.73.73 0 004.13.22L.243 4.153a.74.74 0 00.003 1.043.73.73 0 001.037-.003L5.17 1.259A.74.74 0 005.166.217zM10.846 10.817a.73.73 0 011.037.003l3.887 3.933a.74.74 0 01-.004 1.043.73.73 0 01-1.036-.003l-3.887-3.934a.74.74 0 01.003-1.042z"/><path d="M15.766 10.817a.73.73 0 00-1.036.003l-3.887 3.933a.74.74 0 00.003 1.043.73.73 0 001.037-.003l3.887-3.934a.74.74 0 00-.004-1.042zM10.6.604a.727.727 0 01.96-.383l3.885 1.683a.738.738 0 01.386.966.727.727 0 01-.958.383l-3.886-1.684A.738.738 0 0110.6.604z"/><path d="M15.592 2.196a.727.727 0 01.246 1.003L13.734 6.64a.738.738 0 01-1.01.248.727.727 0 01-.247-1.003l2.105-3.442a.738.738 0 011.01-.248z"/></g></svg>