<svg width="24" height="24" xmlns="http://www.w3.org/2000/svg"><g fill="#FFF" fill-rule="evenodd"><path d="M17.951.371a.728.728 0 01.959-.384l4.551 1.967c.372.161.545.592.386.965a.728.728 0 01-.958.384l-4.552-1.967a.737.737 0 01-.386-.965z"/><path d="M23.451 2.397a.728.728 0 01.246 1.003l-2.362 3.87a.738.738 0 01-1.01.248.728.728 0 01-.246-1.003l2.362-3.87a.738.738 0 011.01-.248z"/><path d="M5.281 21.695a.75.75 0 01-.562-1.39c2.44-.986 4.288-2.548 6.03-6.033.223-.446.417-.852.772-1.609l.255-.544c2.751-5.85 5.195-8.443 11.049-9.848a.75.75 0 11.35 1.458c-5.325 1.279-7.465 3.55-10.042 9.028l-.254.542c-.36.768-.558 1.183-.788 1.644-1.918 3.836-4.05 5.637-6.81 6.752z" fill-rule="nonzero"/><path d="M2.75 22.5a1.25 1.25 0 100-2.5 1.25 1.25 0 000 2.5zm0 1.5a2.75 2.75 0 110-5.5 2.75 2.75 0 010 5.5z" fill-rule="nonzero"/><path d="M18.645 18.555a.729.729 0 011.034.003l4.101 4.15a.737.737 0 01-.003 1.039.729.729 0 01-1.033-.003l-4.102-4.15a.737.737 0 01.003-1.039z"/><path d="M23.777 18.616a.728.728 0 00-1.032.002l-4.103 4.15a.736.736 0 00.003 1.039.728.728 0 001.033-.003l4.102-4.15a.736.736 0 00-.003-1.038zM.245.12a.728.728 0 011.033.003l4.102 4.15a.736.736 0 01-.003 1.039.728.728 0 01-1.032-.003L.242 1.159A.736.736 0 01.245.12z"/><path d="M5.377.12a.728.728 0 00-1.032.003L.242 4.273a.736.736 0 00.003 1.039.728.728 0 001.033-.003l4.102-4.15A.736.736 0 005.377.12z"/></g></svg>