<svg width="32" height="32" xmlns="http://www.w3.org/2000/svg"><g fill="#FFF" fill-rule="evenodd"><path d="M23.98.47a.729.729 0 01.959-.384l6.522 2.806c.372.16.545.59.386.963a.729.729 0 01-.958.385l-6.522-2.806A.736.736 0 0123.98.47z"/><path d="M31.7 3.097a.728.728 0 01.248 1.002l-3.396 5.585a.736.736 0 01-1.008.248.728.728 0 01-.247-1.002l3.396-5.585a.736.736 0 011.007-.248z"/><path d="M8.281 27.695a.75.75 0 01-.562-1.39c2.505-1.013 4.122-2.665 6.61-7.64.173-.346.319-.642.614-1.242l.095-.194c2.056-4.184 3.209-6.12 5.173-8.198 2.593-2.742 5.973-4.646 10.614-5.76a.75.75 0 11.35 1.458c-7.83 1.88-10.782 5.003-14.79 13.162l-.096.193c-.296.604-.443.901-.618 1.251-2.641 5.283-4.519 7.2-7.39 8.36z" fill-rule="nonzero"/><path d="M4 30.5a2.5 2.5 0 100-5 2.5 2.5 0 000 5zM4 32a4 4 0 110-8 4 4 0 010 8z" fill-rule="nonzero"/><path d="M24.245 24.216a.73.73 0 011.033.002l6.435 6.485a.735.735 0 01-.002 1.037.73.73 0 01-1.033-.002l-6.435-6.485a.735.735 0 01.002-1.037z"/><path d="M31.76 24.266a.73.73 0 00-1.032.002l-6.435 6.485a.735.735 0 00.002 1.037.73.73 0 001.033-.002l6.435-6.485a.735.735 0 00-.002-1.037zM.245.216a.73.73 0 011.033.002l6.435 6.485A.735.735 0 017.71 7.74a.73.73 0 01-1.033-.002L.243 1.253A.735.735 0 01.245.216z"/><path d="M7.76.266a.73.73 0 00-1.032.002L.293 6.753A.735.735 0 00.295 7.79a.73.73 0 001.033-.002l6.435-6.485A.735.735 0 007.76.266z"/></g></svg>