<svg width="16" height="16" version="1.1" id="Layer_1" xmlns="http://www.w3.org/2000/svg" x="0" y="0" xml:space="preserve"><style>.st0{fill:#189cce}</style><g id="Symbols"><g id="Icon_x2F_Download_x2F_Blue_x2F_16"><path id="Rectangle" class="st0" d="M.8 8c.4 0 .8.3.8.8v6.5c0 .4-.3.8-.8.8-.5-.1-.8-.4-.8-.9V8.7c0-.4.3-.7.8-.7z"/><path id="Rectangle-Copy" class="st0" d="M15.2 8c.5 0 .8.3.8.7v6.5c0 .4-.3.8-.8.8-.4 0-.8-.3-.8-.8V8.7c.1-.4.4-.7.8-.7z"/><path id="Rectangle-Copy-2" class="st0" d="M0 15.2c0-.4.3-.8.8-.8h14.5c.4 0 .8.3.8.8 0 .4-.3.8-.8.8H.8c-.5 0-.8-.3-.8-.8z"/><path id="Rectangle-Copy-3" class="st0" d="M8 0c.4 0 .8.3.8.8v10.5c0 .4-.4.7-.8.7s-.8-.3-.8-.8V.7c0-.4.4-.7.8-.7z"/><path id="Rectangle-Copy-3_1_" class="st0" d="M4.5 7.9c.3-.3.8-.3 1.1 0l2.8 2.8c.3.3.3.8 0 1.1-.3.3-.8.3-1.1 0L4.5 9c-.3-.3-.3-.8 0-1.1z"/><path id="Rectangle-Copy-3_2_" class="st0" d="M11.3 7.9c-.3-.3-.8-.3-1.1 0l-2.7 2.7c-.3.3-.3.8 0 1.1.3.3.8.3 1.1 0L11.3 9c.3-.3.3-.8 0-1.1z"/></g></g></svg>