<svg width="16" height="16" xmlns="http://www.w3.org/2000/svg"><g fill="#000" fill-rule="evenodd"><path d="M.75 8a.75.75 0 01.75.75v6.5a.75.75 0 11-1.5 0v-6.5A.75.75 0 01.75 8zM15.25 8a.75.75 0 01.75.75v6.5a.75.75 0 11-1.5 0v-6.5a.75.75 0 01.75-.75z"/><path d="M0 15.25a.75.75 0 01.75-.75h14.5a.75.75 0 110 1.5H.75a.75.75 0 01-.75-.75z"/><rect x="7.25" width="1.5" height="12" rx=".75"/><path d="M4.53 7.945a.75.75 0 011.061 0l2.702 2.701a.75.75 0 11-1.06 1.061L4.53 9.005a.75.75 0 010-1.06z"/><path d="M11.293 7.945a.75.75 0 00-1.06 0L7.53 10.646a.75.75 0 001.061 1.061l2.702-2.702a.75.75 0 000-1.06z"/></g></svg>