<svg width="24" height="24" xmlns="http://www.w3.org/2000/svg"><g fill="#189CCE" fill-rule="evenodd"><path d="M17.951.371a.728.728 0 01.959-.384l4.551 1.967c.372.161.545.592.386.965a.728.728 0 01-.958.384l-4.552-1.967a.737.737 0 01-.386-.965z"/><path d="M23.451 2.397a.728.728 0 01.246 1.003l-2.362 3.87a.738.738 0 01-1.01.248.728.728 0 01-.246-1.003l2.362-3.87a.738.738 0 011.01-.248z"/><path d="M7.281 19.695a.75.75 0 01-.562-1.39c1.2-.486 2.352-2.124 4.61-6.64C14.592 5.139 17.54 2.25 23 2.25a.75.75 0 110 1.5c-4.726 0-7.296 2.518-10.33 8.585-2.437 4.875-3.705 6.68-5.389 7.36z" fill-rule="nonzero"/><path d="M3.75 22.5a2.25 2.25 0 100-4.5 2.25 2.25 0 000 4.5zm0 1.5a3.75 3.75 0 110-7.5 3.75 3.75 0 010 7.5z" fill-rule="nonzero"/><path d="M.245.215a.73.73 0 011.033.003l6.01 6.06a.735.735 0 01-.002 1.038.73.73 0 01-1.033-.002L.243 1.253A.735.735 0 01.245.215z"/><path d="M7.286.215a.73.73 0 00-1.033.003l-6.01 6.06a.735.735 0 00.002 1.038.73.73 0 001.033-.002l6.01-6.061A.735.735 0 007.287.215zM16.845 16.815a.73.73 0 011.033.003l6.01 6.06a.735.735 0 01-.002 1.038.73.73 0 01-1.033-.002l-6.01-6.061a.735.735 0 01.002-1.038z"/><path d="M23.886 16.815a.73.73 0 00-1.033.003l-6.01 6.06a.735.735 0 00.002 1.038.73.73 0 001.033-.002l6.01-6.061a.735.735 0 00-.002-1.038z"/></g></svg>