<svg id="Layer_1" xmlns="http://www.w3.org/2000/svg" viewBox="0 0 233.1 92.1"><style>.st0{fill-rule:evenodd;clip-rule:evenodd;fill:#fff}</style><path class="st0" d="M173.1 8.8c6.7 1.5 28.6 14.9 9 30.4l9.8 5.2C212.3 20.6 181.7 9 173.1 8.7c0 0-.2 0 0 .1"/><path class="st0" d="M182.5 1.6c13.2 5 37.1 25.6 19.4 48l9.2 4.8c16.3-16.7 6-43.4-28.5-52.9h-.1c-.1 0-.1 0 0 .1-.1 0 0 0 0 0"/><path class="st0" d="M227.2 42l5.7-23.9-24-11s-.1-.1-.1 0c-.1.1.1.1.1.1 11.5 6.7 19.9 22 18.2 34.8 0 0 0 .1.1 0M.6 65.9h8v25.7h-8zM9 57.6c0 2.5-1.9 4.5-4.4 4.5-2.5 0-4.5-2-4.5-4.5s2-4.4 4.5-4.4c2.5.1 4.4 2 4.4 4.4M14.9 65.9h8v3.6h.1c1.9-2.8 4.2-4.1 7.2-4.1 4.9 0 8.2 3.2 8.2 9.2v17h-8V75.8c0-2.8-.9-4.6-3.1-4.6-1.9 0-3.3 1.4-4.4 4.1v16.2h-8V65.9zM44.5 65.9h8v3.9h.1c2.1-3 4.6-4.4 7.6-4.4 3.4 0 5.9 1.9 7.2 5.2 1.8-3.5 4.3-5.2 7.8-5.2 3.8 0 8.3 2.6 8.3 9.1v17.1h-8v-14c0-4.1-.4-6.3-2.8-6.3-1.7 0-3.3 1.2-4.7 3.6v16.7h-8V76.4c0-3.2-1-5.1-3-5.1-1.7 0-3 1.2-4.5 3.8v16.5h-8V65.9zM101.6 84.9c-1.7 1.4-2.5 1.7-3.7 1.7-1.7 0-2.8-1.1-2.8-2.7 0-2.3 2.2-3.6 6.5-5.2v6.2zm11.1.1c-1.1.7-1.8 1-2.3 1-.7 0-.8-.3-.8-2.8V72.8c0-5.8-4.4-7.4-9.3-7.4-4.2 0-7.1.9-10.7 3.5v5.9c3.4-2.8 6-3.9 8.8-3.9 2.2 0 3.2 1.1 3.2 3.5v.9c-8.1 2.7-13.7 5.1-13.7 10.4 0 3.7 2.9 6.4 6.6 6.4 2.7 0 4.7-1 7.4-3.6.4 2.4 1.7 3.5 4.1 3.5 2 0 3.8-.7 6.7-2.5V85zM116.3 65.9h7.4v9.7h.1c1.7-6.8 4-10 7.1-10 1.4 0 3 .5 4.6 1.5l-1.7 7.1c-1.2-.8-2.3-1.3-3.3-1.3-4.2 0-6.1 7.6-6.1 14.7v4h-8V65.9zM137.4 83.9c3.2 1.8 5.8 2.7 8.2 2.7 1.7 0 3-.8 3-2.2 0-3.5-11.6-2.8-11.6-10.8 0-4.8 3.9-8.2 9.4-8.2 2.8 0 5.4.7 8.3 2.3V73c-1.8-.9-3.2-1.6-4.6-2-1.3-.4-2.6-.6-3.8-.6-1.9 0-3.1.7-3.1 1.8 0 3.5 12.5 2.7 12.5 11.5 0 4.9-4 8.3-9.6 8.3-2.7 0-5.3-.6-8.7-2.2v-5.9zM172.3 84.9c-1.7 1.4-2.5 1.7-3.7 1.7-1.7 0-2.8-1.1-2.8-2.7 0-2.3 2.2-3.6 6.5-5.2v6.2zm11.1.1c-1.1.7-1.8 1-2.3 1-.7 0-.8-.3-.8-2.8V72.8c0-5.8-4.4-7.4-9.3-7.4-4.2 0-7.1.9-10.7 3.5v5.9c3.5-2.8 6-3.9 8.8-3.9 2.2 0 3.2 1.1 3.2 3.5v.9c-8.1 2.7-13.7 5.1-13.7 10.4 0 3.7 2.9 6.4 6.6 6.4 2.7 0 4.7-1 7.4-3.6.4 2.4 1.7 3.5 4.1 3.5 2 0 3.8-.7 6.7-2.5V85zM203.7 89.9c-3 1.6-4.9 2.2-7.2 2.2-4 0-8.5-2.2-8.5-8.7V70.9h-3.7v-1l10.3-12h1.4v8h7.3V71H196v10.9c0 2.4.8 4 2.9 4 1.3 0 2.6-.5 4.8-1.9v5.9z"/></svg>