<svg width="70" height="27" xmlns="http://www.w3.org/2000/svg" xmlns:xlink="http://www.w3.org/1999/xlink"><defs><path id="a" d="M0 26.918h69.149V0H0z"/></defs><g fill="none" fill-rule="evenodd"><path d="M51.374 2.178c2.003.439 8.502 4.426 2.662 9.019l2.923 1.538c6.078-7.062-3.038-10.514-5.576-10.6 0 0-.07.007-.009.043" fill="#58AF4A"/><path d="M54.176.035c3.917 1.493 11.013 7.597 5.752 14.253l2.742 1.432C67.507 10.766 64.45 2.81 54.192 0h-.032c-.005.001-.008.005-.01.01-.01.016.025.025.025.025" fill="#112D52"/><path d="M67.455 12.03l1.694-7.112-7.121-3.277s-.027-.017-.035 0c-.02.027.018.037.018.037 3.416 1.993 5.9 6.551 5.409 10.352 0 0 .009.045.035 0" fill="#1DB9DD"/><mask id="b" fill="#fff"><use xlink:href="#a"/></mask><path fill="#112D52" mask="url(#b)" d="M.113 26.767h2.38v-7.631H.113zM2.626 16.686c0 .728-.58 1.326-1.3 1.326A1.33 1.33 0 0 1 0 16.686c0-.729.596-1.3 1.325-1.3.72 0 1.3.571 1.3 1.3M4.382 19.136h2.38v1.07h.026c.562-.824 1.257-1.22 2.153-1.22 1.456 0 2.432.959 2.432 2.723v5.059h-2.38v-4.673c0-.842-.264-1.377-.931-1.377-.562 0-.993.43-1.3 1.228v4.822h-2.38v-7.632zM13.173 19.136h2.38v1.168h.026c.634-.905 1.379-1.317 2.266-1.317 1.01 0 1.765.562 2.135 1.554.526-1.044 1.29-1.554 2.326-1.554 1.125 0 2.468.772 2.468 2.705v5.076h-2.38v-4.146c0-1.211-.106-1.87-.842-1.87-.52 0-.975.352-1.388 1.062v4.954h-2.38v-4.496c0-.941-.3-1.52-.897-1.52-.491 0-.896.36-1.334 1.124v4.892h-2.38v-7.632zM33.433 24.818c-.316.211-.536.299-.693.299-.203 0-.238-.098-.238-.826v-3.109c0-1.722-1.309-2.195-2.775-2.195-1.239 0-2.117.281-3.17 1.037v1.738c1.018-.826 1.783-1.159 2.607-1.159.66 0 .958.316.958 1.044v.265c-2.397.789-4.083 1.519-4.083 3.091 0 1.088.86 1.914 1.967 1.914.816 0 1.405-.298 2.213-1.071.123.711.517 1.054 1.23 1.054.578 0 1.14-.212 1.984-.73v-1.352zm-3.31-.018c-.51.414-.73.511-1.108.511-.492 0-.825-.326-.825-.81 0-.676.66-1.07 1.932-1.536V24.8zM34.505 19.136H36.7v2.889h.033c.51-2.02 1.188-2.977 2.1-2.977.43 0 .887.15 1.37.449l-.508 2.117c-.37-.248-.695-.38-.993-.38-1.256 0-1.82 2.258-1.82 4.358v1.176h-2.378v-7.632zM40.784 24.501c.957.545 1.713.8 2.44.8.52 0 .879-.237.879-.668 0-1.035-3.451-.825-3.451-3.222 0-1.432 1.16-2.424 2.792-2.424.826 0 1.616.21 2.477.693v1.572a8.124 8.124 0 0 0-1.37-.596 3.976 3.976 0 0 0-1.124-.168c-.58 0-.93.211-.93.545 0 1.028 3.722.807 3.722 3.407 0 1.45-1.176 2.478-2.845 2.478-.79 0-1.581-.186-2.59-.643v-1.774zM54.43 24.818c-.315.211-.526.299-.693.299-.203 0-.227-.098-.227-.826v-3.109c0-1.722-1.31-2.195-2.776-2.195-1.247 0-2.117.281-3.178 1.037v1.738c1.026-.826 1.79-1.159 2.617-1.159.657 0 .956.316.956 1.044v.265c-2.398.789-4.084 1.519-4.084 3.091 0 1.088.86 1.914 1.967 1.914.808 0 1.406-.298 2.213-1.071.114.711.51 1.054 1.222 1.054.578 0 1.14-.212 1.984-.73v-1.352zM51.13 24.8c-.518.414-.73.511-1.107.511-.5 0-.825-.326-.825-.81 0-.676.658-1.07 1.932-1.536V24.8zM60.481 26.276c-.904.474-1.465.64-2.143.64-1.176 0-2.529-.64-2.529-2.59v-3.688h-1.098v-.3l3.066-3.564h.412v2.362h2.18v1.502h-2.18v3.24c0 .71.23 1.203.852 1.203.386 0 .764-.148 1.44-.561v1.756z"/></g></svg>