<svg width="68" height="25" xmlns="http://www.w3.org/2000/svg"><path d="M65.725 9.603l1.32-5.533-5.541-2.547s-.02-.014-.028 0c-.013.02.014.026.014.026 2.658 1.551 4.591 5.096 4.208 8.054 0 0 .007.034.027 0M55.396.273c3.047 1.16 8.567 5.908 4.475 11.086l2.132 1.113C65.767 8.62 63.389 2.431 55.41.245h-.026a.017.017 0 00-.008.007c-.007.014.02.02.02.02M53.217 1.94c1.558.341 6.613 3.443 2.07 7.015l2.275 1.196c4.728-5.492-2.364-8.177-4.338-8.245 0 0-.054.006-.007.034m14.3 22.222v-1.958c-.755.46-1.175.626-1.606.626-.695 0-.95-.547-.95-1.34v-3.612h2.429v-1.674H64.96V13.57h-.46l-3.416 3.974v.333h1.223v4.111c0 2.173 1.507 2.888 2.819 2.888.755 0 1.381-.187 2.39-.715m-10.426-3.69c-1.42.519-2.155.959-2.155 1.713 0 .538.363.9.92.9.421 0 .657-.107 1.235-.567v-2.046zm2.907 2.398c.186 0 .421-.098.773-.333v1.508c-.94.577-1.566.812-2.212.812-.793 0-1.234-.381-1.361-1.174-.9.86-1.567 1.194-2.467 1.194-1.234 0-2.193-.92-2.193-2.135 0-1.751 1.88-2.564 4.553-3.445v-.293c0-.814-.334-1.165-1.068-1.165-.92 0-1.772.372-2.917 1.291v-1.938c1.184-.841 2.153-1.155 3.544-1.155 1.635 0 3.093.53 3.093 2.448v3.465c0 .812.03.92.255.92m-14.44-.685v1.977c1.126.51 2.006.715 2.888.715 1.86 0 3.171-1.146 3.171-2.76 0-2.898-4.15-2.654-4.15-3.799 0-.372.392-.607 1.037-.607.401 0 .813.059 1.254.186.46.147.94.352 1.527.666V16.81c-.96-.539-1.841-.774-2.76-.774-1.822 0-3.114 1.106-3.114 2.702 0 2.672 3.848 2.437 3.848 3.592 0 .48-.402.745-.98.745-.812 0-1.654-.284-2.721-.891m-7-5.981v8.506h2.653v-1.312c0-2.34.627-4.854 2.027-4.854.333 0 .694.146 1.106.42l.568-2.36c-.54-.332-1.048-.498-1.527-.498-1.02 0-1.772 1.067-2.34 3.318h-.039v-3.22h-2.448m-4.885 4.268c-1.42.519-2.154.959-2.154 1.713 0 .538.372.9.92.9.421 0 .666-.107 1.234-.567v-2.046zm2.917 2.398c.176 0 .421-.098.774-.333v1.508c-.94.577-1.567.812-2.213.812-.793 0-1.234-.381-1.371-1.174-.9.86-1.556 1.194-2.466 1.194-1.234 0-2.194-.92-2.194-2.135 0-1.751 1.88-2.564 4.553-3.445v-.293c0-.814-.333-1.165-1.068-1.165-.92 0-1.771.372-2.907 1.291v-1.938c1.174-.841 2.154-1.155 3.534-1.155 1.635 0 3.094.53 3.094 2.448v3.465c0 .812.039.92.264.92m-21.812-6.666v8.506h2.653v-5.452c.49-.852.94-1.253 1.488-1.253.666 0 .999.646.999 1.694v5.011h2.653v-5.52c.46-.793.969-1.185 1.547-1.185.822 0 .94.734.94 2.085v4.62h2.652v-5.657c0-2.154-1.497-3.016-2.75-3.016-1.155 0-2.007.568-2.595 1.733-.411-1.106-1.253-1.733-2.379-1.733-.988 0-1.82.46-2.525 1.469h-.03v-1.302h-2.653m-9.8 0v8.506h2.653v-5.374c.343-.89.823-1.37 1.45-1.37.743 0 1.037.597 1.037 1.537v5.207h2.653v-5.638c0-1.968-1.087-3.035-2.712-3.035-.998 0-1.772.44-2.398 1.361h-.03v-1.194H4.978M3.02 13.47a1.44 1.44 0 00-1.449-1.448c-.812 0-1.478.636-1.478 1.448 0 .813.666 1.479 1.478 1.479.803 0 1.449-.666 1.449-1.479m-2.8 2.732h2.654v8.506H.22v-8.506z" fill="#000" fill-rule="evenodd"/></svg>