<svg width="58" height="52" xmlns="http://www.w3.org/2000/svg"><path d="M52.557 38.937L58 15.716 35.13 5.026s-.087-.058-.115 0c-.054.086.057.113.057.113 10.971 6.508 18.953 21.384 17.373 33.798 0 0 .028.142.112 0M9.09.119c12.735 4.936 35.807 25.125 18.704 47.145L36.702 52C52.434 35.616 42.498 9.298 9.145 0h-.107a.073.073 0 00-.034.031C8.977.09 9.09.12 9.09.12M.081 7.147C6.615 8.596 27.82 21.76 8.762 36.926L18.307 42C38.137 18.689 8.392 7.292.11 7c0 0-.229.03-.03.147" fill="#000" fill-rule="evenodd"/></svg>